<svg xmlns="http://www.w3.org/2000/svg" width="49" height="49" viewBox="0 0 49 49" overflow="visible" enable-background="new 0 0 49 49"><style>.st1,.st2{fill:none}.st2{stroke:#373736;stroke-width:2.5;stroke-linecap:round;stroke-linejoin:bevel}</style><g id="Grupo_71_1_" transform="translate(-470 -590)"><g id="Grupo_60_1_" transform="translate(1542 1716) rotate(180)"><path id="Rectángulo_516_1_" d="M1026,1077h43c1.66,0,3,1.34,3,3v43c0,1.66-1.34,3-3,3h-43c-1.66,0-3-1.34-3-3v-43 C1023,1078.34,1024.34,1077,1026,1077z" fill="#fed730"/><g id="Icons_Actions_ic-actions-danger-simple_1_" transform="translate(1023 1077)"><rect id="Rectángulo_134_1_" class="st1" width="49" height="49"/></g></g><g id="Icons_Arrows_ic-arrows-right_1_" transform="translate(510 630) rotate(180)"><rect id="Rectángulo_419_1_" class="st1" width="32" height="32"/><g id="ic-arrows-right_1_" transform="translate(5.533 9.653)"><line id="Línea_58_1_" class="st2" x1="0" y1="6.32" x2="20.93" y2="6.32"/><path id="Trazado_48_1_" class="st2" d="M15.07,12.69l5.48-5.48c0.52-0.52,0.52-1.36,0-1.88L15.22,0"/></g></g></g></svg>