<svg xmlns="http://www.w3.org/2000/svg" width="50" height="50" viewBox="0 0 50 50" overflow="visible" enable-background="new 0 0 50 50"><style>.st1{fill:none;stroke:#fdd644;stroke-width:3;stroke-linecap:round;stroke-linejoin:bevel}</style><rect id="Rectángulo_408_1_" width="50" height="50" fill="none"/><g id="ic-weather-drop_1_" transform="translate(5.287 4.996)"><path id="Trazado_409_1_" class="st1" d="M33.73,17.15h1.12c3.6-0.4,5.69-5.04,3.94-8.67l-3.94-8.1c-0.12-0.31-0.46-0.47-0.77-0.35 c-0.16,0.06-0.29,0.19-0.35,0.35l-3.94,8.1C28.05,12.11,30.13,16.76,33.73,17.15z"/><path id="Trazado_410_1_" class="st1" d="M4.57,17.15h1.12c3.6-0.4,5.69-5.04,3.94-8.67l-3.94-8.1C5.58,0.07,5.23-0.09,4.92,0.03 C4.76,0.09,4.63,0.22,4.57,0.38l-3.94,8.1C-1.12,12.11,0.96,16.76,4.57,17.15z"/><path id="Trazado_411_1_" class="st1" d="M19.46,40.01h1.52c5.02-0.54,7.75-6.88,5.35-11.81L21,17.2c-0.19-0.43-0.7-0.63-1.13-0.44 c-0.19,0.09-0.35,0.24-0.44,0.44l-5.33,11C11.71,33.13,14.44,39.47,19.46,40.01z"/></g></svg>