<svg xmlns="http://www.w3.org/2000/svg" width="50" height="50" viewBox="0 0 50 50" overflow="visible" enable-background="new 0 0 50 50"><style>.st1{fill:none;stroke:#fdd644;stroke-width:3;stroke-linecap:round;stroke-linejoin:round}</style><rect id="Rectángulo_318_1_" width="50" height="50" fill="none"/><g id="ic-mobile-battery_1_" transform="translate(12.5 6.25)"><path id="Trazado_255_1_" class="st1" d="M20.83,4.17h-2.08V2.08c0-1.15-0.93-2.08-2.08-2.08l0,0H8.33C7.18,0,6.25,0.93,6.25,2.08 c0,0,0,0,0,0v2.08H4.17C1.87,4.17,0,6.03,0,8.33v25c0,2.3,1.87,4.17,4.17,4.17h16.67c2.3,0,4.17-1.87,4.17-4.17v-25 C25,6.03,23.13,4.17,20.83,4.17z"/><path id="Trazado_256_1_" class="st1" d="M15.46,11.46L9.6,21.25c-0.11,0.2-0.05,0.45,0.15,0.57c0.06,0.04,0.13,0.05,0.2,0.06h4.83 c0.23,0,0.42,0.19,0.42,0.42c0,0.06-0.01,0.13-0.04,0.18l-3.87,7.73"/></g></svg>