<svg xmlns="http://www.w3.org/2000/svg" width="42.44" height="48.35" viewBox="0 0 42.44 48.35" overflow="visible" enable-background="new 0 0 42.44 48.35"><rect width="24" height="24" fill="none"/><path d="M6.16,35.78C-0.2,25.03,3.36,11.16,14.11,4.8c2.26-1.34,4.74-2.27,7.32-2.76	c1.12-0.21,2.19,0.52,2.4,1.64c0.1,0.56-0.02,1.13-0.36,1.59C16.8,14.45,18.82,27.3,28,33.98c3.21,2.34,7.03,3.69,11,3.9	c1.13,0.06,2,1.03,1.94,2.16c-0.03,0.56-0.29,1.09-0.72,1.46c-9.54,8.07-23.81,6.87-31.88-2.67C7.53,37.88,6.8,36.86,6.16,35.78z" fill="none" stroke="#fdd644" stroke-width="3" stroke-linecap="round" stroke-linejoin="round"/></svg>