<svg xmlns="http://www.w3.org/2000/svg" width="373.226" height="204.083"><g stroke="#2b2e2d" stroke-linejoin="round" stroke-width=".5" fill-rule="evenodd"><path d="M363.211 50.643l-.112-.075v.112l.112-.037zm-1.118-1.006l.261-.112v-.149zm4.622-2.907l-.037-.522-.074-.3zm-16.288-3.839l-.261.112-2.125.634-.745.261-.857.261-.3.112v.112l.112 1.938.112 1.789.112 1.64.186.112.671-.186 3.019-.895.074.186 5.367-2.05.037.075.484-.186 1.715-.671 1.64 1.975h0l.224-.186.112-.559-.037.895h.373l.112.447.336.634h0l1.752-2.125 1.454.485.335-.745 2.385-1.267-1.006-1.975.261 1.267-1.23.932-1.379.112-2.758-2.945-1.23-1.864 1.23-1.3-1.267-.075-.522-1.23-.037-.075-2.125 2.311-4.7 1.565-1.528.485zM210.467 20.229l.745 2.646 1.565 9.542.745 3.8.224 3.355.857 2.013.186 1.715.149.559-.037.112-1.491 2.46.969 1.64 1.864 13.12.075 1.715 1.864-.112 7.343-.41 18.338-1.528 1.826-.186v-.186l-.522-2.87-2.274-1.155-1.789-1.864-2.833-1.715-.895-.075-1.379-1.044.373-5.144-1.3-1.193.447-2.087 2.385-2.162-.41-4.473.857-.969h0l2.907-3.056 3.317-4.249 1.267-.895 2.236-1.081 2.344-1.75-1.565.3-.932-.708-3.578.485-.559-.671-3.205 1.3-2.572-1.081-.708-.857-2.05.149-1.379-.708.447-.522-1.752-.559h-1.565l-2.5 1.081-.484-.745-3.951-.559-1.342-3.355-.149-1.006-1.715-.485.149 2.87-4.547.335-5.628.224zM174.793 19.896l-12.337-.82-8.983-.857-8.945-1.044-5.554-.745-8.871-1.379-4.435-.745-9.914-1.9-1.044-.224-1.6 7.6.708 1.379.559 2.125-.335.3.708 1.938.969.82 2.758 4.622.261.783 1.118-.075-1.3 6.113-.522.149-.708 2.05 3.69.261.3 1.715 2.087 5.106.373.3 1.454 2.982.373-.3 3.094-.037 3.914.41.969-1.267 1.155 2.087.224.112.037-.224.522-3.653 12.747 1.565 10.175.969 5.367.447 9.579.559.485.037h.112l.037-.522.112-2.572.149-3.392.037-.857.075-1.491.6-11.7.485-9.095.037-1.491-.722-.039z" fill="#d2d2d2"/><path d="M209.685 20.229l-11.256.224-7.865-.037-6.746-.149-7.9-.3-.41-.037-.037 1.491-.485 9.095-.6 11.7-.075 1.491 1.454.075 16.437.447 15.17-.112 6.3-.186 1.268-.071-.149-.559-.186-1.715-.857-2.013-.224-3.355-.745-3.8-1.562-9.543-.745-2.646h-.783zM155.863 189.633l-1.155-.857-1.006.261.224 2.087-1.379 1.715 1.193 2.721.335 2.8 1.379.895.857-1.379 1.528-1.122 1.864-.485 2.05-1.752-2.013-1.715-.037-1.044-3.839-2.125zm-6.784-3.019l-.559-.485-.522.708zm-2.8-1.6l.149-1.379-.708-.112zm2.348-2.274l-.634.3.447 1.416.969.075.3 1.23 1.044.447 2.311-1.081-2.162-1.789zm-4.771-1.528l-.335 1.006 1.6-.037 1.491.373-.783-1.23-1.975-.112zm-4.7-2.945l-.857-.82-1.64 1.267 1.044 1.938.745-.783 2.125.447-.186-.895-1.23-1.155zm-16.7-1.64l.224-.522.634-.335-.857.857zm5.926-3.392l-2.609.969-.261.708 1.044.745 1.454.373 1.044-2.05zm-18.077-6.858v-.037h-.066zm-19.754-4.883v.075h.037zm-10.362-1.715l.037.037h0zm-.41-.745zm-.335-.373h-.075v.037zm.261 0h0zm-.037-.037h0zm-11.7-9.616l-.037-.112v.037zm-25.529-8.165l-.112.112.075.037.037-.149zM15.42 122.02zm.932.037h0zm-.186-.037zM.25 115.054l.112-.037v-.075l-.112.112zM114.676 12.178l-3.317-.671-1.081-.261-.485-.112-4.323 19.456.186 1.6-.146 1.68.075.373v.037l.037.708 1.267 1.379-1.826 4.585-3.876 5.069-.112.932 1.006 2.385-3.541 14.685-.149.783 1.044.224 10.548 2.087 4.212.783 1.081.186 1.044.186 5.367.857 9.616 1.454 1.081.149.149-1.23.335-2.423 1.267-9.691.671-4.808.149-1.23-.224-.112-1.155-2.087-.969 1.267-3.914-.41-3.094.037-.373.3-1.454-2.982-.373-.3-2.089-5.105-.3-1.715-3.69-.261.708-2.05.522-.149 1.3-6.113-1.118.075-.261-.783-2.758-4.622-.969-.82-.708-1.938.335-.3-.559-2.125-.708-1.379 1.6-7.6h-.037z" fill="#d2d2d2"/><path d="M69.763 21.458l.037-.634-.075.037.037.6zm7.939-3.392l.224-.373-.261-.037.037.41zm-.708-.671l.224-.745-.224-.075zm2.721-1.081l-.037-.745-.634.969.671-.224zm.075-1.565l.112-.745-.077-.186-.037.932zm.112-3.653l-.037-.41-.149-.037.186.447zm1.193-2.46l-.335-.037-.671 1.044zm-.932-1.006l.186-.149.037-.112-.224.261zm-.186.112l-.112-.745-.335.634zm-.186-1.044l-.335-.149.261.373zm1.118.634v-.485l-.112.186zm.335-.485l-.149-.112h-.037l.186.112zm-2.125-.82l-.186-.149-.075-.037zm1.379-.149l-1.006.261.261.075zm-.82-.075l-.186-.224-.037.037.224.186zm.783-.447h-.149l.186.075zm-7.306 19.122l1.342 1.454-.224 2.8.261.708 2.013 1.081 5.665.522.224.671 2.684.037 2.535.335 4.137-.447 2.05.335.559-.261 10.473 2.377.708.149-.075-.373.149-1.677-.186-1.6 4.324-19.456-.6-.112-8.722-2.05-7.6-1.938-8.61-2.385-2.572-.634.6 3.243-.559 1.044-1.006-.522.969 4.51-1.044 1.491-.485 1.379v1.416l-2.2 1.528-.932-.6-.895.447 1.64-2.125-.41 1.454.932-1.006.745.149-.22-1.859.485.075 1.006-2.236-.335-.335-1.3 1.677-.857.037.932-1.044 1.044-.261-.373-1.9-1.044-.261-.522-.895-.634.335-3.429-1.491-3.019-2.348-.82 2.274-.075.969.634 1.715-.41 5.554-.3.857 1.677.149-1.677 1.193.895.447-.708 2.385-.335-1.864-.634 2.162.857 1.044.932-.075 1.118.671.559 1.081h.671zM138.904 110.875l-12.561-1.565-6.746-.969-9.616-1.528-.969-.149v.075l-1.64 7.231-.857-.037-1.3-1.155-1.64 1.379-.037 5.926-.6 1.267v.149l-.075.932 1.3 3.5 1.155 1.565-2.084 1.231-.82 1.528-1.342 3.28-.671.149-.037 2.721 1.155.857-.6 1.64-1.342.075h0l-.783 1.454 2.684 1.677 5.069 2.833 15.654 8.312 13.269 1.64h.149l1.044-11 .261-2.721 2.8-28.849.149-1.342z" fill="#d2d2d2"/><path d="M75.093 131.562l.149.82v.149l-.149-.969zm-5.479-3.205l.261.559.149-.037-.41-.522zm6.523-.112l.112.969.671.485zm-4.51-5.293l-.41-.112.335.149zm-4.137-1.118l-1.006.6.261.261zm-1.938-.708l-.075.3.335.075-.261-.373zm3.28.745l1.64.932.3-.261zm-12.71-32.837l-.037.037.037-.037zm3.988.186l-.037-.112v.149zm21.506-28.29l-1.454-.373-15.953-4.4-5.926-1.789v.149l-.335 3.69-1.565 4.361-2.609 3.243-.075 1.64 1.267 2.274.634 2.982-.895 2.423.149 2.423-.447 1.006 1.528 3.317.969 1.267-.075 3.615 2.311 2.2 1.342-2.236 1.454 1.155.559-.522-2.013.373-.037 1.9.41 2.385-1.118-1.081-.634-1.454-.186 2.013.522 3.988 2.087 2.572-1.379 1.789.224 2.274 1.491 2.311 2.609 7.156.82.447-.261 4.957.41.6 5.591 2.013 1.715 1.826.6 1.193 1.64.932 1.789.335.745 2.05 1.491.708 2.236 2.646 2.087 3.466-.149 3.205 1.155 1.528 15.244 1.491h0l1.342-.075.6-1.64-1.155-.857.037-2.721.671-.149 1.342-3.28.82-1.528 2.087-1.23-1.155-1.565-1.3-3.5.075-.932v-.037l-.969-1.3-2.982-3.988-5.777-8.125-8.051-11.555-4.547-6.3-4.4-6.336 5.069-21.506.335-1.416z" fill="#fff"/><path d="M184.004 90.003l.149-7.305-1.789-.075-9.094-.335-.895-.037-.745-.037-11.07-.708-7.38-.6-9.206-.895-.895-.112-.112.969-2.013 19.419-.708 6.784-.3 2.945-.075.969 1.155.112 18.785 1.64 8.274.522 8.237.373 1.193.037.745.037 1.565.037.745.037 2.348.075h.6v-.745l.41-19.717.037-2.2v-.708l.037-.485zM109.198 105.471l3.876-24.115 1.975-12.076.224-1.193-1.081-.186-4.212-.783-10.548-2.087-1.044-.224-1.044-.224-5.255-1.155-9.43-2.236-1.044-.261-.335 1.416-5.069 21.506 4.4 6.336 4.547 6.3 8.051 11.555 5.777 8.125 2.982 3.988.969 1.3v-.112l.6-1.267.037-5.926 1.64-1.379 1.3 1.155.857.037 1.64-7.231v-.075l.186-1.193z" fill="#d2d2d2"/><path d="M177.407 116.578l.037-.969.037-.969.037-.969-1.193-.037-8.237-.373-8.275-.522-18.785-1.64-1.155-.112-.149 1.342-2.8 28.849-.261 2.721-1.044 11 .149.037 5.144.485.485-2.609.932-.745 10.436.932h.075l-.932-1.826 4.734.335 11.815.671 7.38.335 1.267-34.962.261.037.037-1.006zM58.283 54.37l5.926 1.789 15.953 4.4 1.454.373 1.044.261 9.43 2.236 5.255 1.155 1.044.224.149-.783 3.541-14.685-1.006-2.385.112-.932 3.876-5.069 1.826-4.585-1.265-1.381-.037-.708v-.041l-.708-.149-10.474-2.385-.559.261-2.05-.335-4.137.447-2.535-.335-2.684-.037-.224-.671-5.665-.522-2.015-1.074-.261-.708.224-2.8-1.342-1.454-.112.037-.261.186-1.864-.969-1.118.335-.745-.373-.783 3.205-.522.895-2.311 5.628-.671 3.094-.41.037-2.162 5.144-1.454 2.2-.522.373-1.342 2.609-.256 2.761-.82 2.46.485 2.236zm13.639-30.601l-.112-.335-.037.261.149.075zM131.3 70.584l-9.616-1.454-5.367-.857-1.044-.186-.224 1.193-1.979 12.075-3.876 24.115-.186 1.193.969.149 9.616 1.528 6.746.969 12.561 1.565.969.112.075-.969.3-2.945.708-6.784 2.013-19.419.112-.969-.745-.075-9.5-1.155-1.454-.186.932-7.268.075-.485-1.081-.149z" fill="#d2d2d2"/><path d="M173.158 65.663l.3-5.815.373-7.827.037-.969-.485-.037-9.579-.559-5.367-.447-10.175-.969-12.75-1.566-.522 3.653-.037.224-.149 1.23-.671 4.808-1.267 9.691-.335 2.423-.149 1.23-.075.485-.932 7.268 1.454.186 9.5 1.155.745.075.895.112 9.206.895 7.38.6 11.07.708.745.037.037-.969.186-3.914.335-6.821.149-2.907.037-.969.037-1.006zM261.12 117.85l-4.025.6 1.64-2.609-.708-1.454-14.2 1.379-12 .969-1.752.112.224 1.044 1.454 7.529.037 1.677.41 10.138.037 1.677.112.037.559.6 2.236-.075.224 3.28.075.932 1.155-.112 3.541-.261 14.052-1.3h.075l-.037-.82.373-.261-.671-1.267 1.416-5.964-.559-.671 2.125-2.348-.149-2.013 1.565-2.609v-.037l-.075-.075 1.342-1.23-.373-1.491 1.044-1.64-.224-1.528 1.118-2.162v-.047h-.037zM250.014 67.789l-2.05-1.081-1.118-1.528-.373-2.2.3-1.006-1.081-1.3h0l-1.826.186-18.338 1.528-7.343.41-1.864.112-.783.037.634 4.137-.522 1.975.82 1.23v.261l.261.037 1.193 3.5 1.155 1.826.075 2.087 1.267 1.752-.224.745 1.155 4.7v.112h0l7.641-.224 8.163-.708 8.014-1.006 1.826 1.6.074.075.335-.149-.261-1.454 1.379-.857.559-3.8-.559-.261.335-1.938 1.677-.335 1.864-1.342.82-2.348.037-1.193-1.491-1.416-.447-.895-1.416-.895.075-.186.037-.186zM229.812 111.957l-.932-15.766-1.677-.969-.149-.745-1.342-1.193 1.3-1.6-.522-.932-.969.037-.895-.634-.373-.3-1.267.075-13.754.522-6.3.149h-12.517l-5.032-.075-1.416-.037v.708l-.037 2.2-.41 19.717v.745l1.6.037 8.647.112 20.239-.3 14.424-.671 1.416-.112-.037-.969z" fill="#d2d2d2"/><path d="M246.994 84.971l-1.826-1.6-8.014 1.006-8.163.708-7.641.224h0l-.037.224.932 1.789.857.6 1.006 1.789.149.149.373.3.894.634.969-.037.522.932-1.3 1.6 1.342 1.193.149.745 1.677.969.932 15.766.037.969.075.969.037.969.075 1.006.037.969 1.752-.112 12-.969 14.2-1.379.708 1.454-1.64 2.609 4.026-.6h.037v-.3l.075-1.715.745-.932-.224-1.044-.037-.037-.037-.037.149-.485.224.075.112.3-.037.112v.335l.149.037.3-.373v-.037l.037-.112.969-.6.149-.075.336-3.056-.075-.149-.112-.037-2.646-2.162.41-.783-.745-2.125-1.342-1.044-2.534-1.118-1.6-1.3.186-2.684.484-2.5-2.684.149-.82-.857-.373-1.715L247.969 90l-1.193-3.317.3-1.64h0l-.075-.075z" fill="#d2d2d2"/><path d="M215.76 70.472l-1.155-1.155-4.063-1.193-1.3-.037-1.975.559-2.348-1.491-7.343.075-10.7-.112-12.635-.41-1.118-.037-.037.969-.149 2.907-.335 6.821-.186 3.914-.037.969.895.037 9.095.335 1.789.075-.149 7.305-.037.485 1.416.037 5.032.075h12.524l6.3-.149 13.754-.522 1.267-.075-.149-.149-1.006-1.789-.857-.6-.932-1.789.037-.224v-.112l-1.155-4.7.224-.745-1.267-1.752-.075-2.087-1.155-1.826-1.193-3.5-.261-.037-.708-.075zM230.035 115.87l-.075-1.006-.037-.969-.075-.969-1.416.112-14.424.671-20.239.3-8.647-.112-1.6-.037h-.6l-2.348-.075-.745-.037-1.565-.037-.745-.037-.037.969-.037.969-.037.969-.037 1.006h.224l9.02.224 9.542.112.112 12.747.671 2.236 1.491 1.416 1.6.075.335-.671 2.2 2.013 2.87.3.522.6 1.044-.485 2.609 1.23v.708l.969-.037 1.006-.857 1.864 1.193 1.752.634 1.193-1.64 3.8 1.789 1.416-1.155 1.156-.447.932.224 3.5-1.006 1.864.783 1.677 1.081 1.454.261h.037l-.037-1.677-.41-10.138-.037-1.677-1.454-7.529-.224-1.044-.037-.969z" fill="#d2d2d2"/><path d="M213.673 43.934l-6.3.186-15.17.112-16.437-.447-1.453-.072-.037.857-.149 3.392-.112 2.572-.037.522h-.112l-.037.969-.373 7.827-.3 5.815-.037 1.006 1.118.037 12.635.41 10.7.112 7.343-.075 2.348 1.491 1.975-.559 1.3.037 4.063 1.193 1.155 1.155.708.075v-.261l-.82-1.23.522-1.975-.634-4.137.783-.037-.075-1.715-1.864-13.12-.969-1.64 1.491-2.46.037-.112zM260.561 172.078l-.484.112-.224.224zm1.565 0l-.261-.112-.075.112zm.895-.3h-.26l-.149.186zm-.447-.261l-.075-.112-.037.112h.112zm2.987-1.971l-.112.075h.186zm5.218-2.2l.224-.3-.261.335.037-.037zm.745-.969l-.075.037v.037l.075-.075zm-19.158 3.28l.559-.708-1.528-.41-.671.559 1.64.559zm15.468-3.243l-.149-.149-.037.075.186.075zm.41-.671l-.373-.112.112.373zm3.056-.634h0zm.745-.485l-.037-.037.037.075v-.037zm-.3-.075l-.075-.037-.037.112zm-2.609-.112l.336-.112v-.112zm.186-.186l.186-.186-.037-.037-.149.224zm-1.3-1.379l-.075.075h.037l.037-.075zm-13.761-20.873h-.075l-14.052 1.3-3.541.261-1.155.112.037.895.745 7.194 1.23 1.715.037 1.006 1.193 2.087.969 3.056-.336 1.715-.261 4.249-.559 1.379h.075l.112.969-.634.895 4.622-.522 3.615 1.006 2.572.335 1.3-.932-.708-.932 2.385-.745-.075.82 1.23-.3 1.006 1.565.857-.3 2.236 1.528-1.379.485 3.168.932h1.193l.708-.857 1.528-.82 1.081 1.565.745-1.416-.224-2.236 2.013.783.224.671 2.385.3 1.193.969-.149.783 1.677-1.565-.634-.82-2.8-.708-1.044-.6-.037-1.118 1.155.149.895-1.826-1.155-1.6-.634 1.528-1.454-.261 1.006-1.64-.671-.186-1.64 1.155-2.348.149-.671-.522 1.081-1.9 1.267-.037 2.162.708 1.565.149h0l-.857-1.081-1.64-3.205.447-1.789-12.859 1.416.485-.485-.522-1.342.783-1.155.447-2.907 2.833-4.845-1.379-1.677.075-1.23-.857-2.013z" fill="#d2d2d2"/><path d="M216.394 198.056l-1.789-6.746v1.267zm-.41-11.853l-1.267 2.385-.149.783 1.416-3.168zm1.006-1.752l1.193-1.565-.857.522zm4.212-3.8l-2.8 1.454.783-.149zm.373-.522l.783-.634-.3.075zm-44.205-62.543l-.261-.037-1.267 34.962-7.38-.335-11.815-.671-4.734-.335.932 1.826.037.037 4.025 4.025 2.311 2.721 3.056 2.274 2.162 3.951.82 4.137 1.752 1.155 1.379 1.528 1.975.708 2.87 1.826 1.3.485 1.789-1.789.559-1.9.932-1.826 2.907-1.155 1.118.559 3.243.261 2.945 1.826 2.013.373-.559 1.044 1.155.745 1.081 1.3.224 1.379.708.932 1.64 3.951 1.64 1.379 1.267 2.087 1.6 1.64.708.224.6 4.249 1.752.969.075 1.342.447-.112 3.056 3.727 1.528.335 1.938 1.155h2.982l2.162 1.193 2.572-.559-1.155-1.081-1.044-3.131-.41-2.721-.6-.895.261-1.826-.783-.075-1.032-1.712 1.193 1.267 1.379-.485.745-1.975-1.491-2.013 2.236.261 1.044-1.6-.149-.559.932-1.23-.224 1.081 1.044-.82-.41-1.454 1.342.708 1.715-.969-1.677-1.752 1.044.41 1.938.112 2.535-.559 2.833-1.9 1.715-1.416.261-1.044 1.044-1.081-.559-1.789.112-1.118 1.864-.82-.149 1.975h1.118l-1.23 1.044 4.957-2.609.82-.037.522-2.385h.149l.559-1.379.261-4.249.335-1.715-.969-3.056-1.193-2.087-.037-1.006-1.23-1.715-.745-7.194-.037-.895-.075-.932-.224-3.28-2.236.075-.559-.6-.112-.037h-.037l-1.454-.261-1.677-1.081-1.864-.783-3.5 1.006-.932-.224-1.155.447-1.416 1.155-3.8-1.789-1.193 1.64-1.752-.634-1.864-1.193-1.006.857-.969.037v-.708l-2.609-1.23-1.044.485-.522-.6-2.87-.3-2.2-2.013-.335.671-1.6-.075-1.491-1.416-.671-2.236-.112-12.747-9.542-.112-9.02-.224h-.224zM355.793 46.916l-5.367 2.05-.075-.186-3.019.895-.671.186.075.373 1.416 5.479.447.559-.969 1.193.671.634h0l2.162-2.087 1.156-1.6.224.447 5.442-2.423.112-.112-.037-.895-.224-.783-1.155-3.243-.149-.41zM350.762 21.049l-.485.6-.559-.112-.3 2.46v.037l.895 3.355-.075.671-1.6 2.125.41 1.938v2.423l-.3 2.236 1.677 6.113h0l1.528-.485 4.7-1.565 2.125-2.311h0v-.6l.112-.969-.261.112-.037-.224-2.348-2.87-.075-.261-5.4-12.673z" fill="#d2d2d2"/><path d="M359.446 50.27l-.037-.783-.112.3.149.485zm.745-.6l-.485-.932-.037.969.522-.037zm-.224-1.155l.261.671.336.6.224-.447-.335-.634-.112-.447h-.373zm-4.137-1.528l.149.41 1.155 3.243.224.783.037.895.075-.112 1.789-1.416-.335-2.535.745-.149h0l-1.64-1.975-1.715.671-.485.186zM350.426 42.891l-1.678-6.113.3-2.236v-2.423l-.41-1.938 1.6-2.125.075-.671-.895-3.355-.485.186-2.05.745-2.013.783-4.622 1.679-.261.075 1.677 3.914.559 3.69 1.975 3.094 1.864 6.113.074-.037.3-.112.857-.261.745-.261 2.125-.634.261-.112h0zM271.818 124.292l.149.3.522.335.224 15.282.075 8.386 1.9 11.48.149-.037 1.677.335.447-3.317.745 1.864 1.267 1.155 2.423-1.416-.261-.224.075.037-1.677-3.839 16.1-2.609 1.081-.186v-.037l-1.006-1.9-.074-2.721-.82-1.491.41-2.907.671-.745-2.758-4.92-4.995-15.207-.037-.075-1.118.186-5.964.969-2.982.373-6.262.857.037.075z" fill="#d2d2d2"/><path d="M324.186 197.422h-.074l.037.037.037-.037zm-.335-.037v.037h.037zm.075-.037h0zm-5.069.559h0zm-.074.037h0zm.037-.037zm-.373.037h-.037v.037zm10.585-2.348h-.037l.037.075zm1.006-.261v-.075l-.075.112.075-.037zm-.373-.075l-.149-.149-.037.037.186.112zm-.112.3l-.447-.559.261.485.186.075zm3.541-2.2v.149l.075-.075zm.522-.373l.112-.186-.149.149.037.037zm.112-.373h-.037v.037zm-.671-.112l-.037-.037.037.037zm.335-.559l-.037-.037v.075l.037-.037zm-1.006-.037l-.037-.037.037.037zm1.267-.857l-.074.037.112.037-.037-.075zm.149 0l-.075-.075.037.112.037-.037zm-.261-.075l-.037-.037v.075l.037-.037zm1.379-.261v-.037l-.075.149zm-1.565.149h-.075l.075.037zm.783-.447h-.11l-.037.037zm.3-.186zm-3.131.149v-.075l-.037.075zm.336-.112h-.115l.112.224zm-.895.037v-.224l-.186.037zm-.522-.373l.186.186v-.075l-.186-.112zm5.479.224l-.671.3.224.037zm-5.218-.335h-.224v.075zm5.889-1.864l.037-.186.037-.485zm.037-2.087l-.149-.373-.075.149zm-8.61.932l-.075.112.186.037-.112-.149zm-.708-.335l-.335.112.261.037zm-.745.075v-.112l-.037.037.037.075zm-.783-.037l-.224.149.3.149-.075-.3zm1.044.037l-.037-.112-.186-.037zm-4.883-3.653l-.224.112.447.149zm-.895-1.193l-.3-.447.112.335.186.112zm1.155.745l-.522-1.193-.373-.112zm-1.491-1.491l-.112-.3-.075-.186zm-3.094-4.137l-.671-.485.261.261zm16.773-2.5l-2.721-4.547h-.149zm-18.823-7.268l-.112-.037.112.075v-.037zm-.224-.261l-.037.037.037.037v-.075zm-.261-.373v-.037l-.037.037zm.149-.149l.112.075v-.068zm.224-.149l-.149.037h.036zm-.261-.037l-.112-.112.037.037.075.075zm-.261-.41h-.075l.112.037zm.261-.447h-.152l-.037.037zm.149.075l-.186-.186.075.037.112.149zm-1.416-1.6l-.075-.037v.037zm-1.6 0l-.112-.149.037.186zm-13.567-1.23l1.118-.857-1.23.82.112.037zm2.236-1.789l.112-.112-.447.186.335-.075zm-14.164-2.5l-4.063 1.3 2.236-.634zm10.1-6.336l-1.081.186-16.1 2.609 1.677 3.839.112.037-.41 1.528 1.193-.522 1.3-1.155 2.236-.075 2.572-.932 1.752.261-.41.634 3.205 1.081 2.764 1.339.634 1.491 2.05-.447 4.845-3.951 1.789.075 7.305 5.516 1.491-.3 1.565 2.087.3 3.317-.485 2.087.224 1.044 1.3 2.609-.6-2.05 1.677-.037.149 1.491-.895 2.311 3.094 4.249 1.156.037-.969-1.3 1.193.149.708-.447-.3 2.385 1.6 1.267 1.081 2.907 1.454.895 1.864.485 2.572 3.28 1.342.708-1.789.112.82.932 2.945-.969 1.454-.82 1.342-4.7-.671-7.305-.149-.745-3.578-5.964-3.056-4.324-1.714-3.541 1.454 1.23.3-.224.634 3.094 1.64 2.348-1.6-3.131.075-1.491-4.808-5.852-1.156-1.826-1.528-3.094-1.044-2.609-.82-.932-.186-1.193-.037-.037-2.572-.149-1.006.783-.559 2.87-.522-1.342-17.593 2.2-1.267-1.975.037-.037z" fill="#d2d2d2"/><path d="M320.795 143.974l-.037-1.118-.261.969zm.41-1.715l-.149-.857-.112.522zm-17.443-23.482l-.485.112-1.416.3-5.218 1.081-.484.112-.522.075-2.907.559-.783.149-3.168.6-.671.075.037.075 4.995 15.207 2.758 4.92-.671.745-.41 2.907.82 1.491.075 2.721 1.006 1.9v.037l-.037.037 1.267 1.975 17.593-2.2.522 1.342.559-2.87 1.006-.783 2.572.149h0l-.224-4.025.484-.857-.261-1.6.522-1.528.783-.857-.559-.522 1.3-1.6h-.037l-2.236-2.087-3.056-4.361-1.677-.783-7.194-6.038-1.752-2.236-3.392-1.416-.186-.745 1.044-2.05h0zM271.222 161.902l-.186.037v.037l.186-.075zm3.466-.447h-.522l.485.037zm-4.324.373l-.149.149.037.037.112-.186zm3.5-.3h-1.416l1.342.037zm-15.538-35.52v.037l-1.565 2.609.149 2.013-2.124 2.348.559.671-1.416 5.964.671 1.267-.373.261.037.82v.261l.857 2.013-.075 1.23 1.379 1.677-2.833 4.845-.447 2.907-.783 1.155.522 1.342-.485.485 12.859-1.416-.447 1.789 1.64 3.205.857 1.081v-.037l1.379-1.565 2.907-.634 2.684.3.41-.522v-.037l-1.9-11.48-.072-8.388-.224-15.282-.522-.335-.149-.3h-.074l-1.864.261-3.28.447-7.454.932-.82.075z" fill="#d2d2d2"/><path d="M303.761 118.773h0l-1.044 2.05.186.745 3.392 1.416 1.752 2.236 7.194 6.038 1.677.783 3.056 4.361 2.236 2.087h0l.373-1.715-.6-1.64 1.6 1.193.895-.708-1.528-1.267 1.864-.112 2.907-2.46-.335-.634 1.789-1.379-.186-.671 1.3-.82.075-1.9 2.05-3.8 1.379-1.752.149-.075-8.312-5.255-3.094.6-4.212-.149-2.087-1.081-12.364 3.909h-.112zM249.976 67.975l-.075.186 1.416.895.447.895 1.491 1.416-.037 1.193-.82 2.348-1.864 1.342-1.677.335-.336 1.938.559.261-.559 3.8-1.379.857.261 1.454-.335.149h0l-.3 1.64 1.193 3.317 4.249 3.578.373 1.715.82.857 2.684-.149-.485 2.5-.186 2.684 1.6 1.3 2.535 1.118 1.342 1.044.745 2.125-.41.783 2.646 2.162.112.037-.224-.224.745-1.752 2.87.783.708-.82-.559-1.64 2.348-1.379-.634-.895.559-1.267v-.112l-.149-.037.037-3.317.82-.6 1.416-3.317-.3-1.454-.932-1.752.522-1.975-2.609-18.375-.373-.41-.969-2.2-.783-.82-.336-2.162v-.075l-5.032.708-3.019.373-8.125.932h0z" fill="#d2d2d2"/><path d="M284.118 68.757l-5.7 1.006-1.3.261-4.622.745-.969.783-1.454.671-.559-.037-.671-.335-.224-.224 2.609 18.375-.522 1.975.932 1.752.3 1.454-1.416 3.317-.82.6-.037 3.317.149.037.149-.037.559-1.044h1.379l1.677-.559 2.087.783.224-.857 1.193-.895 1.789.261.969-1.9 2.646.224-.037-1.081 2.348-3.094-.373-1.416 1.64-.037 2.013-1.6-.484-1.826.075-.075-.075-.634-2.246-13.201-1.006-5.628-.112-.6-.112-.485z" fill="#d2d2d2"/><path d="M262.168 113.67l-.112-.3-.224-.075-.149.485.037.037.41-.037.037-.112zm25.494-24.376l-.075.075.485 1.826-2.013 1.6-1.64.037.373 1.416-2.348 3.094.034 1.084-2.646-.224-.969 1.9-1.789-.261-1.193.895-.224.857-2.087-.783-1.677.559h-1.379l-.559 1.044-.149.037v.112l-.559 1.267.634.895-2.348 1.379.559 1.64-.708.82-2.87-.783-.746 1.753.224.224.075.149-.335 3.056-.149.075-.969.6-.037.112 1.081-.149 7.529-1.006-.373-1.491 1.267-.037 15.17-2.013 10.66-1.789.149-.112.261-.3 2.8-1.491 2.162-2.833.3-.969 1.416-1.118 1.789-2.274.261-.373-.112-.037h-.932l-1.193-.671-2.125-2.572-.745-2.609v-.079l-.075-.075-1.565-.895-.708-1.193-1.426 1.383-.895.224-1.118-.447-.969.745-2.013-.895-.522.224-1.9-1.64-.969-.485-1.826.224-.3.3zM337.828 119.448l-.41.41.074.075.336-.485zm.3-2.162l-.186.3.075.3zm2.236-3.466l-.559.373-.3.447zm4.808-2.348l-.224-.149-.485-.037.708.186zm-1.006-.224h-.335l-.559.3zm1.155.41l1.081-2.684-.745 1.118zm1.6-3.541l.484-.708h-.261zm3.131-2.907l-.82-4.137.708 2.162zm-4.547-9.43l-.075.037-.112.037h.037l2.05 3.466 1.6 1.6-3.5-5.144h0zm-.671.224l-.3.075h0l.074.037h.634l-.075-.224h0l-.112.037h-.112v.075l-.075.037-.037-.037h0zm-34.477 8.5l-.186.559.037 1.6-.41-.037-.969 1.975-1.081.112-2.013 1.975-.895-.335-1.156 1.715-3.056 2.758-1.491.373-1.565 1.454-.075.969-1.379.745.037 1.64v.373l.485-.112 5.22-1.082 1.416-.3.484-.112h.112l12.374-3.914 2.087 1.081 4.212.149 3.094-.6 8.312 5.255.149-.112 3.839-1.565.037-2.05 1.379-2.5 1.491-1.416 3.094-2.05.41-.745.82.373.373-2.46-.447.857-1.565.522-1.491.037 1.826-1.342-.559-.6.634-1.342-3.5-.559-.149-.186 2.982-.559.969.485 1.23-.112 1.006-.745.745-1.454.671-.186-.112-2.05-.857-.82-.857.783.186 1.975-.634-2.423-.485-.112-3.69 1.528 1.64-1.6.075-.634 1.715-.41.484-1.267 1.156.671-1.23-1.826-.857-.745h0l-14.909 4.249-9.5 2.423-9.616 1.789-.037-.075z" fill="#d2d2d2"/><path d="M310.172 71.215l-.932-4.025-.186-.82-1.044-4.585-1.342.857-2.87 2.2-1.863 2.273-1.454.224-2.684 1.528-1.491-.895-4.51-.522h0l-2.385.6-2.348.559-2.46.522-.373.112.112.6 1.006 5.628 2.236 13.195.075.634.3-.3 1.826-.224.969.485 1.9 1.64.522-.224 2.013.895.969-.745 1.118.447.895-.224 1.416-1.379.708 1.193 1.565.895.075.075h0l1.6-.783.559-1.23-.447-1.267 1.267-1.938.932-.149-.112-1.64 1.528-2.087.261.3 1.379-1.044 1.193-1.789.186-8.163.075-.037-.186-.783zM297.909 107.26l-10.66 1.789-15.17 2.013-1.267.037.373 1.491-7.529 1.006-1.081.149v.037l-.3.373-.149-.037v-.335l-.41.037.037.037.224 1.044-.745.932-.074 1.715v.335l-1.118 2.162.224 1.528-1.044 1.64.373 1.491-1.342 1.23.075.075.82-.075 7.455-.932 3.28-.447 1.864-.261h.074l-.037-.075 6.262-.857 2.982-.373 5.964-.969 1.118-.186.671-.075 3.168-.6.783-.149 2.907-.559.522-.075v-.373l-.037-1.64 1.379-.745.075-.969 1.563-1.454 1.491-.373 3.056-2.758 1.155-1.715.895.335 2.013-1.975 1.081-.112.969-1.975.41.037-.037-1.6.186-.559-.6.112-2.125.6-2.535.522-6.374 1.3-.671.112-.149.112z" fill="#d2d2d2"/><path d="M344.946 95.929h.112l.112-.037h0l-.074-.186-.149.224h0zm-1.267-4.175v.191l.186-.112zm.671-1.3l-.037-.3h0zm-.224.447l-.075.485-.112.186.186-.671zm.335-.969l.037-.224-.074.224zm.224-1.006l.112-.261-.186.671zm.037-.559l.149-.82-.186.186zm.671-3.69l.075-.335-.037.075zm-.149-.857l-.484.186-.745.335-.261.335.112.037-.895 5.554.335.895.522-2.311.969-3.019.447-1.975zm.745-.3l-.112.037-.037.149-.186 1.155.149-.41.186-.932zm-38.95 14.275l-.261.373-1.789 2.274-1.416 1.118-.3.969-2.162 2.833-2.8 1.491-.261.3.671-.112 6.374-1.3 2.535-.522 2.125-.6.6-.112.037.075 9.616-1.789 9.5-2.423 14.909-4.249h0l-.112-.186-.037-.112.261.261h0l.3-.075-.037-.037-.261-1.267.186.037.6 1.118h0l.112-.037.075-.037-.149-.3-1.528-2.348-1.9.335-.857.708-.82-.745-2.8-.932-1.938-.075 3.765-.335 2.087 1.416.6-.932-1.677-2.125 1.193.075-.634-1.715-1.491.075-3.541-2.87h-.447l4.995 2.46-.335-1.715.335-.559-2.535-.969-2.2-.149-1.081-.969-.895.559-.335-2.572.373.075-.074-2.087-.074-.075-.075.037-.074-.037-.186-.149-.112-.112-1.193-.522-1.23-.895-1.714-.447-.112-.037v.037l-.224 1.565-3.466-1.491.075 2.162-1.9 3.615-1.155 1.267-.745 2.2-2.274-.783-1.118 5.069-.895 1.715-.149 2.236-.671 1.081-2.5.745-2.05 1.6-.969.149-.932.82-2.348-.857-.41-1.155-.074-.037zM267.01 43.635l-.932 1.155-.559 1.677.261.932zm-21.394-8.759l.559-.783-.41.373zm.857-1.23l-.186-.224-.41.261.6-.037zm-8.125 2.087l-.857.969.41 4.473-2.385 2.162-.447 2.087 1.3 1.193-.373 5.144 1.379 1.044.895.075 2.833 1.715 1.789 1.864 2.274 1.155.522 2.87v.186h0l1.081 1.3-.3 1.006.373 2.2 1.118 1.528 2.05 1.081-.037.186h0l8.125-.932 3.019-.373 5.032-.708-.149-.559v-1.75l-1.006-1.864-.261-2.348.485-2.609-.261-2.013.895-2.5-.335-.41.075-2.311.485-1.752-.559-.6-1.081.373-.6 1.565-1.416.82.447-1.975 1.267-1.677.075-.745.037-.037-1.788-1.781v-2.536l-2.013-1.64-2.758-.186-2.833-.745-6.113-1.864-1.193-.671-.112.112-1.9-.261-.634.373.261-2.721-3.056 1.565-3.727.6zm7.305-1.975l-.074-.261-.261.112zm-1.342-.261l.112-.224-.075-.075zm2.721-.634l-.112-.522-.112.634z" fill="#d2d2d2"/><path d="M317.294 77.777l-5.293 1.3-1.64-7.082h0l-.075.037-.186 8.163-1.193 1.789-1.379 1.044-.261-.3-1.528 2.087.112 1.64-.932.149-1.267 1.938.447 1.267-.559 1.23-1.6.783h0v.075l.745 2.609 2.125 2.572 1.193.671h.932l.112.037.075.037.41 1.155 2.348.857.932-.82.969-.149 2.05-1.6 2.5-.745.671-1.081.149-2.236.895-1.715 1.118-5.069 2.274.783.745-2.2 1.155-1.267 1.9-3.615-.075-2.162 3.466 1.491.224-1.565v-.037h0l-1.081-1.864-2.236-.261-1.3 1.006v.745l-1.118.261-1.64 1.155-.857.186-1.715 2.423-.857-3.914-.745.186zM339.204 71.627l.149.559 3.094 8.834 3.541-1.044-.037-.075h.075l.112.037h0l.075-.037-.075-.149-.895-2.385-4.361-4.137.186-2.87h-.895l-.671.522-.3.745zM333.206 79.865l.186.149.074.037.075-.037.075.037.261.149.075.112v.261l.075.149.484-.895-.522-.3-.634.037z" fill="#d2d2d2"/><path d="M346.028 83.368l.261-2.013-.224 1.491-.149.634-.037.075.112-.037zm.186-3.466l-.074.037.074.224v-.261h0zm-28.178-2.311l.857 3.914 1.715-2.423.857-.186 1.64-1.155 1.118-.261v-.75l1.3-1.006 2.236.261 1.081 1.864h0l.112.037 1.714.447 1.23.895 1.193.522.112.112.149-.3.634-.037.522.3-.484.895v.037l-.708 2.162 2.311 1.491 2.311.112 1.528.708-.634-1.789-1.975-.671-.485-1.528 1.23 1.64 1.006.149-.895-.895-.708-2.646.186-1.528-.783-1.677.82-.671.6-2.162-.224 3.205.634 1.081.6-1.267.335 2.087-.634 1.528 1.826.671-1.565.522.82 1.528 1.342.447.745-1.3-.075 1.826 1.267-.037.82.932h.037l.261-.335.745-.335.485-.186-.037-.075.969-2.87v-.112l-.186-.745v-.037l-3.541 1.044-3.094-8.834-.149-.559-.634.186-2.646.82-14.573 4.063-2.646.708zM348.041 71.479l-.186-.447v.447zm.373-1.379l.112-1.118-.224.969zm-1.528-11.443l-3.917-.969-.671-.186-.634-.149h0l-1.565 3.466.671.82-.037 2.5.708.112 1.454 3.8-.075.112-1.826 2.684.186 2.05 4.4 1.491.037 1.715 1.006-1.416.149-2.05 1.044-.708-.41-1.528.783-1.826v-3.988l-.261-1.3-1.752.037.447-1.789.261-2.87h0z" fill="#d2d2d2"/><path d="M346.773 61.676l-.559.783-.149.224zm5.144-1.826l1.864-1.64v-.075zm-4.883 1.155v-1.267l-.112.671zm8.647-5.964l-.447-.112-.075.335zm1.006-.671l-.037.373.074-.224-.037-.149zm-1.044.037l-2.5 2.311-3.839 1.64-1.006.857-.075.82-1.044.857.149 1.118 1.6-.634 2.348-1.9 2.609-1.379 3.951-3.727-2.8 2.125-.895.373zm1.156-1.565l.149-.224-.447.522zm-41.894-1.379l-.6-.075.447.6zm12.375-11.405l.074-.41-.3.373zm.186-2.684l-.149.075-.186.41zM311.7 58.545l.261 1.118 1.975.485 11.331-3.094 11.405-3.429 2.087 1.6.41.932 2.423 1.044.075.149.634.149.671.186 3.914.969-.074-.186.335 1.528.745-.186.41-1.677v-.037l-.671-.634.969-1.193-.447-.559-1.416-5.479-.074-.373-.186-.112-.112-1.64-.112-1.789-.112-1.938v-.112l-.075.037-1.864-6.113-1.975-3.094-.559-3.69-1.677-3.914-.224.112-7.79 2.609-1.566 1.677-1.752 3.355.074.745-2.311 3.5 1.416.485.41 2.646-1.64 2.162-4.92 2.982-.932-.373-3.653.522-3.392 2.05.186 1.081 1.193 1.044-.671 3.28-2.684 3.131-.037.037z" fill="#d2d2d2"/><path d="M341.592 57.203l-2.423-1.044-.41-.932-2.087-1.6-11.405 3.429-11.331 3.094-1.975-.485-.261-1.118-.634.485-1.006.708-1.826 1.864-.224.186 1.044 4.585.186.82.932 4.025.186.783h0l1.64 7.082 5.293-1.3.745-.186.671-.186 2.646-.708 14.574-4.063 2.646-.82.634-.186h0l.3-.745.671-.522h.895l.112-.335 1.454-1.64.149-.261.112-.075-1.454-3.8-.708-.112.037-2.5-.671-.82 1.565-3.466h0zM359.558 37.337h-.037l.075.037-.037-.037zm2.758-7.939l-.3-.447v.224l.3.224zm-.522-.41v-.373l-.037-.224.037.6zm1.342-1.565l-.075-.037.037.112.037-.075zm3.727-1.864l-.074-.559-.149.261zm-.932.224l.037-.41-.447.075.41.335zm1.379-1.23h-.149v.076zm-1.864.559l-.335-.075-.037.335zm1.9-1.155l.335.261-.112-.3zm-1.006.037l-.335.634.447-.224-.112-.41zm-1.6.037l-.149.224.112.335.037-.559zm2.2-1.23l-.037-.3-.112.186zm-.186.149l-.335-.3v.261zm-2.087.857l-.075-.41-.149.335zm3.541-1.3l-.559.82-.037-.6zm2.721-2.5l-.26-.378-.149.075.41.3zm1.006-1.677l-.224-.112-.037.112zm.484-2.907h-.335l.373.112zm.559.373l-.109-.674-.3-.037.41.708zm-.6-.6l-.075-.708-.261.485zm-21.616 5.853l5.4 12.673.075.261 2.348 2.87v-.037l.373-.112.075-2.125.6-.745.373-1.975-.335-.335.634-1.938 2.162-1.006 1.416-1.715.522-2.982 2.274-.149-.3-1.528 2.833-1.081.186-1.677.671.149 1.864-1.528.82-1.975-1.9-1.9-2.013-.41-.745-1.528v-.895l-1.23.373-1.379-.485V9.718l-3.727-8.051-2.721-1.416-3.019 2.535-.82-.149-.708-1.3-.969.373-1.379 6.858.485 2.236.41 4.547-1.081 3.5.745.559-.895 1.715-.969-.149-.074.075zM272.452 44.94l-.186-.3-.037.373zm.6-.671l-.447-.6-.075.261zm.373-2.684l-.373-.335v.075zm-.932 29.184l4.622-.745 1.3-.261 5.7-1.006.112.485.373-.112 2.46-.522 2.348-.559 2.385-.6-.037-.112 1.23-2.423-.112-2.013 1.379-3.466 1.081.634.41-.783-.112-2.982-1.003-1.86-1.491-3.951-1.3-1.454-.671-.186-2.423 1.677.261.335-1.267 2.385-1.23-.224-.373-2.5.522-.186 1.081-2.5.112-4.4-1.677-3.727-3.727-.634-.373-.559-3.466-1.006-1.565 1.938.149 1.677-1.193 1.491.261 2.311-1.155.82v-2.907l-1.044 2.2-1.23 1.938-.82.634.41 2.05-.522 2.125.3 2.646-.373 1.3 2.684 5.144.335 1.975-.335 3.653-1.789 4.1-.224.149zm7.976-33.583l-.969.075.6.447zm-5.665.969h-.3l.335.149zm6.523-4.734l-.373-.6-.149.037.522.559zm-33.773 2.723l1.193.671 6.113 1.864 2.833.745 2.758.186 2.013 1.64v2.535l1.789 1.789v-.037l1.454-4.212 1.752-1.23 1.342-1.491.224 1.342 1.379-2.125 3.317-1.267.261-.522 3.355.41 1.3.671.634-1.64.6.373 2.609-.41-.634-1.044-1.156-.671.224-2.423-2.274 1.267-2.087-.261-.671-1.6.224-.522-2.833 1.342-1.826.112-3.28 2.013-.373.745-2.013-.485-1.267.559-2.534-2.2-5.628-1.715-.112-.671-3.615 3.466-2.05.522-2.907 2.2-.112.075zm13.194-8.461l-4.361 2.162 1.454 1.416.559-1.416 1.491-1.826.857-.335zm-4.883-5.106l-2.982 2.05-.149 1.006 2.348-1.715zM34.875 200.367l-.186.075.149.037.037-.112zm1.379.224h0zm-.671-.634v.112l.075-.037zm-.335-.186v-.037h0zm.708.373v-.075l-.037.037zm-.075-.075v-.037h-.075zM6.81 175.579l-.037.261.075.745-.038-1.006zm-.187-1l.037.335.037-.112-.074-.223zm29.259 25.047l.037-.224-.149.075.112.149zm4.249 1.826l-.037-.037.075.149-.037-.112zm-2.758-1.3l-.41-.373v.895zm.932.82l-.037-.261-.634-.037.671.3zm2.236.522l-.037.075h.071l-.037-.075zm.149.037h-.075l.149.037zm.447.149h0zM8.226 176.4l.149.037.112-.037zm32.092 24.749l-.3-.037.112.112.186-.075zm-34.1-27.656l-.522-.224-.037.112.559.112zm35.036 27.731l-.075-.037v.037zm2.274.447l-1.454.112-.335.149zm-39.956-34.03h-.41l.075.112.335-.112zm44.466 35.744v-.149h-.075zm1.938.037l.075-.075-.076-.068zm1.454.41l.075-.037h-.037l-.037.037zm-1.193-.671l-.037-.149h-.075l.112.149zm2.5.559l-.037.037h.037zM3.791 165.741l-.559.075.708.634-.149-.708zm46.963 37.422l.075-.224h-.037l-.037.224zm6.3-.559l.037-.075-.075-.037.037.112zm-.932-.335l-1.3 1.155.932-.075 1.081-.857-.708-.224zm2.348.41l-.261-.075.186.149.075-.075zm.522.037l-.41-.112-.075.037zm-1.416-.522h-.41l.708.186zm1.715.373l-.037-.075-.149.037.186.037zm-1.116-.448l-.149-.075v.41zm4.771.932l-.037-.037h-.075l.112.037zm.075-.037v-.035l-.075-.037.075.075zm-.634-.224l.075.149v-.037l-.075-.112zm.335 0l-.335-.112.41.3zm.485-.373h0zm4.435.559l-.075-.149h-.037l.112.149zm40.105-2.5l-.075-.075.037.075h.037zm-45.174 1.155v-.037l-.037.037zm46.255-1.826l.112.149h.075zm-40.739 2.8l-.037.037v.112zm-4.622-.671l.075-.3h-.037l-.037.3zm47.523-2.982l-.335.186.3.149.037-.335zm-46.852 2.8l-.037-.075.037.075zm-2.8-.82l-.932.186-.82 1.081zm6.672 1.416l-.224.186.224-.037v-.149zm42.975-3.578l-.075-.149-.037.075.112.075zm-46.553 2.609l-.261-.037.261.261zm44.093-2.125l-.075.075.075.261zm-43.5 2.087l-.112.037.149.112-.037-.149zm2.758.783h-.108l-.075-.075zm-3.056-.783l-.186-.112.075.112zm2.5.41l-.335.112-.224.6zm40.478-2.609v.261l.149-.186-.149-.074zm-44.876 1.416l.3-.075h-.037l-.261.075zm-.373-.224l-.075-.075v.037l.075.037zm45.249-1.454l-.075-.037-.037.112.112-.075zm-40.888 2.236l-.075-.037-.075.112.149-.075zm40.515-2.162l.037-.186-.075-.037.037.224zm-.3-.186l-.112.149.186.037-.075-.186zm-38.652 1.826l-.075-.075h-.03l.112.075zm38.54-2.5l.3.112.112-.149-.41.037zm.447-.261l-.112.075.186.112zm-.857.224l-.075-.149-.075.075.149.075zm3.727-1.379l-.485 1.379.485-.3zm-44.162 2.869h0zm40.888-2.348l-.335.335.075.373.261-.708zm-34.7 2.982v-.149l-.037.075zm34.291-3.355l1.081 1.64 2.423 1.528-.559-1.3-2.311-1.975-.634.112zm-35.782 2.758l-.037-.112-.075.037.112.075zm37.049-3.392l-.149.559.261-.186-.112-.373zm.783 0l-.037.373.335.112-.3-.485zm-36.639 2.907l-.186-.037-.186.075.373-.037zm3.839.3l-.149.261.075-.224.075-.037zm.559.037l-.335.037.186.224zm-22.588-4.772l.373.186-.073-.071-.3-.112zm14.8 3.69l.037-.037-.037.037zm.112-.037h.037v-.038zm38.54-2.87l.186.708.373-.224-.559-.485zm-37.533 2.46l.037-.037h0zm35.931-2.162l.186 1.715.373-.373zm.186-.559l.857 1.193-.112-.783zm-2.646.3l-.224.708.3-.485-.075-.224zm-29.818 1.826l-.037-.037.037.037zm3.541.075l-.075-.112.075.149v-.037zm26.352-2.46l1.491 2.46-.224-1.677-1.267-.783zm-24.264 1.3l-.112.112.186.075-.075-.186zm-.485.075l.037-.112h-.153l.112.112zm-.373 0l-.969.634-1.193 1.565.6.634 2.758-2.05zm23.519-2.423l-.261-.149v.224l.261-.075zm-23.743 1.975l.037.149.261.149-.3-.3zm24.451-2.684l-.745.373.708.224.037-.6zm-.485 0l-.075-.075-.037.075h.112zm2.274-.6l-.3-.112-.075.224zm-1.6.261l-.261-.037v.075l.261-.037zm.82-.3l1.521 2.248-.41-2.05zm-24.6 2.423l-.895.671.41.447 1.193-.895-.708-.224zm-10.138-1.416l-.037-.037v.037zm-.41-.186l-.037-.186v.075zm11.443.485l-.075.037v.037zm-.373-.075h-.037l-.075.112.112-.112zm.895-.3l-.112-.075v.037l.112.037zm.3-.037l-.112-.075v.037l.112.037zm-.485-.112h-.149v.037zm7.417-.745l.037-.112-.075.075.037.037zm2.274-1.193l.447-.559-.149.112zm-4.547-.075l.149-.112.037-.149-.186.261zm0-.41l-.149.112.261-.075zm-6.113 0l-.037-.149h-.037l.075.149zm5.964-.037l-.149.149-.075.149zm4.1-.447h0zm.186 0l-.075-.037v.037zm-.447-.037l.037.037v-.027zm-3.056.224l.149-.149-.186.149h.037zm2.274-.447zm-1.826.112l-.895 1.454 1.155-1.342zm-1.155.186l-.112-.149-.037.074.149.075zm2.833-.335l-.075-.037.037.037h.037zm.969.075v-.261l-.075.112zm-27.358-2.87l-1.789-.075 1.23 1.3zm25.457 2.646l.075.261.186-.3-.261.037zm-1.491-.037l-.112.82.186-.522zm-32.353-6.187l.037-.149h0zm31.98 5.665l.037.112.075-.037-.112-.075zm-.186.149l-.075-.224-.112.075zm1.752-.447v-.149l-.112.075zm-1.677-.224v.373l.112-.261zm-2.833-.447v-.112h0zm-19.456-4.622l.075-.224-.037.037-.037.186zm.112-.373l-.037-.037-.037.037h.075zm1.64-.895v-.037h0zm0-.149l-.037-.075h0zm.671-.969zm.224.075l-.149-.075v.037l.149.037zm-.224-.149v-.071l-.075.075zm-5.964-1.752l-.075-.186-.037-.112.112.3zm.559-.671h.037l.037.037-.075-.037zm-1.006-.186l-.3-.373.224.3zm-.6-.6h-.075l.112.037-.037-.037zm.075-.41zm-.075-.037h0l.075.037zm9.877 2.945l-.41.037.224.112zm-10.287-3.615l-.3 1.118.932.149 1.23 1.267.745-.335zm6.523.447h0zm-1.864-3.951l-.075-.037.037.037h.037zm1.081.373l.112-.037h-.037l-.075.037zm.745-.224h.112l.335-.149-.447.149zm1.342-.41l.075-.075-.112.075h.037zm.186-.037l.224-.112-.186.037-.037.075zm.559-.224l-.186.037v.037l.186-.075zm.224-.037zm23.705-6.709l-.149-.112-.261-.112.41.224zm-19.531-.82l.335-.447-.186.149-.149.3zm.447-.522l.149-.224-.075.075-.075.149zm.224-.3l.261-.224-.149.075-.112.149zm11.741.075l.186.186h.112zm-6-2.46l-1.528 1.267-.932-.261-2.162 1.23-.41-.261-2.46 2.758-2.5.559.224 1.342 1.118 1.528 2.087 2.013-.335.783 1.565.671-.82.149-1.006-.783.522 1.155-.671.41-2.125-1.938-1.677.3-2.87 1.081 1.3 1.454-.186.895.857 1.044 2.833 1.118 2.05-1.044.335.783-.559 2.348h-1.717l-2.013.895-.112-.634-1.044.41-.485 1.081-1.715 1.3v1.9l.671.3-.522 1.6 2.236 1.938 1.416-.6-.3 2.385.41.522 1.715.373.634.708 1.491.112.708.745 1.528-.447-.708.969-.559 1.975-4.547 2.944-.6.6-.857-.335-1.379.335-1.975 1.3 3.094-.895.447.671 3.988-1.3.112.522 1.565-1.565 3.28-2.274.261.149 2.87-2.274-.745-.895.969-1.6 2.535-3.019 1.938-.373.6.41-2.348.671-.634 2.5.075 1.342.82-.075 3.951-2.385.3-.895-.335-1.379 1.193.3.857-.559 2.46 1.491-.186.41 5.591.708 1.3-.41.373.559 4.845 2.311.82-.485.075-2.8.634 1.267 3.131 2.274.261.932 2.721 1.528.708 1.975.671-1.528 1.379 2.684.932-1.528-.745-1.9-2.87-.3-4.4-4.212-2.385-1.752-1.826 1.789h-1.081l-2.5-1.64-2.46-.112-3.5-22.1-.6-1.044-1.416-.857-2.125.41-1.64-.335-2.087-.82-2.2.149-.559-1.044-1.752-.261-.3-.634-.783.895-.224-1.677z" fill="#d2d2d2"/></g></svg>